<!DOCTYPE svg PUBLIC "-//W3C//DTD SVG 1.1//EN" "http://www.w3.org/Graphics/SVG/1.1/DTD/svg11.dtd">
<svg width="991" height="991" viewBox="0 0 991 991" version="1.1" xmlns="http://www.w3.org/2000/svg" xmlns:xlink="http://www.w3.org/1999/xlink" xml:space="preserve"><line x1="959" y1="103" x2="139" y2="923" stroke="rgba(0,0,100,0.4)" stroke-width="1"/><line x1="899" y1="63" x2="899" y2="53" stroke="rgba(0,0,100,0.4)" stroke-width="1"/><line x1="591" y1="871" x2="364" y2="644" stroke="rgba(0,0,100,0.4)" stroke-width="1"/><line x1="739" y1="913" x2="310" y2="484" stroke="rgba(0,0,100,0.4)" stroke-width="1"/><line x1="460" y1="309" x2="460" y2="705" stroke="rgba(0,0,100,0.4)" stroke-width="1"/><line x1="351" y1="389" x2="351" y2="837" stroke="rgba(0,0,100,0.4)" stroke-width="1"/><line x1="420" y1="55" x2="420" y2="541" stroke="rgba(0,0,100,0.4)" stroke-width="1"/><line x1="916" y1="520" x2="382" y2="520" stroke="rgba(0,0,100,0.4)" stroke-width="1"/><line x1="136" y1="604" x2="295" y2="604" stroke="rgba(0,0,100,0.4)" stroke-width="1"/><line x1="343" y1="59" x2="142" y2="59" stroke="rgba(0,0,100,0.4)" stroke-width="1"/><line x1="951" y1="206" x2="806" y2="206" stroke="rgba(0,0,100,0.4)" stroke-width="1"/><line x1="984" y1="950" x2="61" y2="27" stroke="rgba(0,0,100,0.4)" stroke-width="1"/><line x1="739" y1="388" x2="988" y2="388" stroke="rgba(0,0,100,0.4)" stroke-width="1"/><line x1="374" y1="370" x2="644" y2="370" stroke="rgba(0,0,100,0.4)" stroke-width="1"/><line x1="403" y1="504" x2="798" y2="899" stroke="rgba(0,0,100,0.4)" stroke-width="1"/><line x1="943" y1="535" x2="229" y2="535" stroke="rgba(0,0,100,0.4)" stroke-width="1"/><line x1="149" y1="227" x2="583" y2="661" stroke="rgba(0,0,100,0.4)" stroke-width="1"/><line x1="62" y1="126" x2="62" y2="352" stroke="rgba(0,0,100,0.4)" stroke-width="1"/><line x1="131" y1="391" x2="131" y2="717" stroke="rgba(0,0,100,0.4)" stroke-width="1"/><line x1="254" y1="944" x2="254" y2="220" stroke="rgba(0,0,100,0.4)" stroke-width="1"/><line x1="572" y1="111" x2="572" y2="47" stroke="rgba(0,0,100,0.4)" stroke-width="1"/><line x1="336" y1="249" x2="830" y2="743" stroke="rgba(0,0,100,0.4)" stroke-width="1"/><line x1="898" y1="858" x2="203" y2="163" stroke="rgba(0,0,100,0.4)" stroke-width="1"/><line x1="203" y1="320" x2="825" y2="942" stroke="rgba(0,0,100,0.4)" stroke-width="1"/><line x1="19" y1="318" x2="19" y2="120" stroke="rgba(0,0,100,0.4)" stroke-width="1"/><line x1="740" y1="432" x2="740" y2="39" stroke="rgba(0,0,100,0.4)" stroke-width="1"/><line x1="591" y1="383" x2="220" y2="754" stroke="rgba(0,0,100,0.4)" stroke-width="1"/><line x1="445" y1="592" x2="19" y2="592" stroke="rgba(0,0,100,0.4)" stroke-width="1"/><line x1="202" y1="370" x2="837" y2="370" stroke="rgba(0,0,100,0.4)" stroke-width="1"/><line x1="473" y1="916" x2="600" y2="789" stroke="rgba(0,0,100,0.4)" stroke-width="1"/><line x1="118" y1="955" x2="884" y2="189" stroke="rgba(0,0,100,0.4)" stroke-width="1"/><line x1="377" y1="376" x2="533" y2="532" stroke="rgba(0,0,100,0.4)" stroke-width="1"/><line x1="160" y1="264" x2="160" y2="62" stroke="rgba(0,0,100,0.4)" stroke-width="1"/><line x1="627" y1="572" x2="627" y2="679" stroke="rgba(0,0,100,0.4)" stroke-width="1"/><line x1="217" y1="690" x2="217" y2="629" stroke="rgba(0,0,100,0.4)" stroke-width="1"/><line x1="685" y1="323" x2="866" y2="504" stroke="rgba(0,0,100,0.4)" stroke-width="1"/><line x1="391" y1="309" x2="493" y2="207" stroke="rgba(0,0,100,0.4)" stroke-width="1"/><line x1="872" y1="776" x2="357" y2="776" stroke="rgba(0,0,100,0.4)" stroke-width="1"/><line x1="116" y1="326" x2="116" y2="426" stroke="rgba(0,0,100,0.4)" stroke-width="1"/><line x1="82" y1="900" x2="832" y2="900" stroke="rgba(0,0,100,0.4)" stroke-width="1"/><line x1="594" y1="862" x2="594" y2="593" stroke="rgba(0,0,100,0.4)" stroke-width="1"/><line x1="802" y1="636" x2="802" y2="223" stroke="rgba(0,0,100,0.4)" stroke-width="1"/><line x1="862" y1="226" x2="862" y2="787" stroke="rgba(0,0,100,0.4)" stroke-width="1"/><line x1="313" y1="573" x2="834" y2="573" stroke="rgba(0,0,100,0.4)" stroke-width="1"/><line x1="145" y1="631" x2="13" y2="499" stroke="rgba(0,0,100,0.4)" stroke-width="1"/><line x1="545" y1="433" x2="420" y2="308" stroke="rgba(0,0,100,0.4)" stroke-width="1"/><line x1="427" y1="623" x2="427" y2="808" stroke="rgba(0,0,100,0.4)" stroke-width="1"/><line x1="898" y1="120" x2="511" y2="120" stroke="rgba(0,0,100,0.4)" stroke-width="1"/><line x1="859" y1="811" x2="859" y2="28" stroke="rgba(0,0,100,0.4)" stroke-width="1"/><line x1="715" y1="958" x2="715" y2="893" stroke="rgba(0,0,100,0.4)" stroke-width="1"/><line x1="115" y1="234" x2="484" y2="234" stroke="rgba(0,0,100,0.4)" stroke-width="1"/><line x1="125" y1="253" x2="50" y2="253" stroke="rgba(0,0,100,0.4)" stroke-width="1"/><line x1="737" y1="265" x2="158" y2="265" stroke="rgba(0,0,100,0.4)" stroke-width="1"/><line x1="523" y1="965" x2="523" y2="983" stroke="rgba(0,0,100,0.4)" stroke-width="1"/><line x1="118" y1="51" x2="118" y2="766" stroke="rgba(0,0,100,0.4)" stroke-width="1"/><line x1="455" y1="774" x2="455" y2="357" stroke="rgba(0,0,100,0.4)" stroke-width="1"/><line x1="680" y1="881" x2="925" y2="881" stroke="rgba(0,0,100,0.4)" stroke-width="1"/><line x1="191" y1="186" x2="187" y2="186" stroke="rgba(0,0,100,0.4)" stroke-width="1"/><line x1="821" y1="629" x2="792" y2="658" stroke="rgba(0,0,100,0.4)" stroke-width="1"/><line x1="397" y1="906" x2="397" y2="962" stroke="rgba(0,0,100,0.4)" stroke-width="1"/><line x1="988" y1="811" x2="988" y2="427" stroke="rgba(0,0,100,0.4)" stroke-width="1"/><line x1="91" y1="733" x2="519" y2="733" stroke="rgba(0,0,100,0.4)" stroke-width="1"/><line x1="46" y1="172" x2="566" y2="172" stroke="rgba(0,0,100,0.4)" stroke-width="1"/><line x1="740" y1="619" x2="880" y2="759" stroke="rgba(0,0,100,0.4)" stroke-width="1"/><line x1="609" y1="465" x2="609" y2="702" stroke="rgba(0,0,100,0.4)" stroke-width="1"/><line x1="289" y1="211" x2="289" y2="620" stroke="rgba(0,0,100,0.4)" stroke-width="1"/><line x1="622" y1="135" x2="622" y2="929" stroke="rgba(0,0,100,0.4)" stroke-width="1"/><line x1="113" y1="53" x2="872" y2="53" stroke="rgba(0,0,100,0.4)" stroke-width="1"/><line x1="559" y1="713" x2="559" y2="132" stroke="rgba(0,0,100,0.4)" stroke-width="1"/><line x1="894" y1="237" x2="211" y2="920" stroke="rgba(0,0,100,0.4)" stroke-width="1"/><line x1="237" y1="259" x2="237" y2="39" stroke="rgba(0,0,100,0.4)" stroke-width="1"/><line x1="738" y1="542" x2="976" y2="542" stroke="rgba(0,0,100,0.4)" stroke-width="1"/><line x1="163" y1="34" x2="525" y2="34" stroke="rgba(0,0,100,0.4)" stroke-width="1"/><line x1="681" y1="672" x2="264" y2="255" stroke="rgba(0,0,100,0.4)" stroke-width="1"/><line x1="37" y1="827" x2="722" y2="827" stroke="rgba(0,0,100,0.4)" stroke-width="1"/><line x1="60" y1="803" x2="514" y2="349" stroke="rgba(0,0,100,0.4)" stroke-width="1"/><line x1="433" y1="866" x2="433" y2="257" stroke="rgba(0,0,100,0.4)" stroke-width="1"/><line x1="379" y1="493" x2="379" y2="643" stroke="rgba(0,0,100,0.4)" stroke-width="1"/><line x1="697" y1="588" x2="192" y2="83" stroke="rgba(0,0,100,0.4)" stroke-width="1"/><line x1="875" y1="646" x2="318" y2="89" stroke="rgba(0,0,100,0.4)" stroke-width="1"/><line x1="634" y1="983" x2="634" y2="111" stroke="rgba(0,0,100,0.4)" stroke-width="1"/><line x1="636" y1="69" x2="636" y2="41" stroke="rgba(0,0,100,0.4)" stroke-width="1"/><line x1="911" y1="780" x2="701" y2="570" stroke="rgba(0,0,100,0.4)" stroke-width="1"/><line x1="792" y1="71" x2="956" y2="71" stroke="rgba(0,0,100,0.4)" stroke-width="1"/><line x1="682" y1="338" x2="608" y2="412" stroke="rgba(0,0,100,0.4)" stroke-width="1"/><line x1="257" y1="768" x2="450" y2="575" stroke="rgba(0,0,100,0.4)" stroke-width="1"/><line x1="112" y1="25" x2="795" y2="708" stroke="rgba(0,0,100,0.4)" stroke-width="1"/><line x1="730" y1="86" x2="730" y2="65" stroke="rgba(0,0,100,0.4)" stroke-width="1"/><line x1="966" y1="785" x2="789" y2="608" stroke="rgba(0,0,100,0.4)" stroke-width="1"/><line x1="390" y1="263" x2="483" y2="356" stroke="rgba(0,0,100,0.4)" stroke-width="1"/><line x1="90" y1="852" x2="90" y2="471" stroke="rgba(0,0,100,0.4)" stroke-width="1"/><line x1="507" y1="914" x2="769" y2="914" stroke="rgba(0,0,100,0.4)" stroke-width="1"/><line x1="803" y1="535" x2="803" y2="245" stroke="rgba(0,0,100,0.4)" stroke-width="1"/><line x1="710" y1="787" x2="570" y2="787" stroke="rgba(0,0,100,0.4)" stroke-width="1"/><line x1="138" y1="842" x2="270" y2="710" stroke="rgba(0,0,100,0.4)" stroke-width="1"/><line x1="862" y1="988" x2="862" y2="656" stroke="rgba(0,0,100,0.4)" stroke-width="1"/><line x1="56" y1="408" x2="849" y2="408" stroke="rgba(0,0,100,0.4)" stroke-width="1"/><line x1="16" y1="10" x2="979" y2="973" stroke="rgba(0,0,100,0.4)" stroke-width="1"/><line x1="982" y1="14" x2="12" y2="984" stroke="rgba(0,0,100,0.4)" stroke-width="1"/><line x1="647" y1="915" x2="38" y2="306" stroke="rgba(0,0,100,0.4)" stroke-width="1"/><line x1="797" y1="487" x2="19" y2="487" stroke="rgba(0,0,100,0.4)" stroke-width="1"/><line x1="539" y1="933" x2="924" y2="933" stroke="rgba(0,0,100,0.4)" stroke-width="1"/><line x1="509" y1="734" x2="176" y2="734" stroke="rgba(0,0,100,0.4)" stroke-width="1"/><line x1="813" y1="505" x2="976" y2="505" stroke="rgba(0,0,100,0.4)" stroke-width="1"/><line x1="474" y1="987" x2="474" y2="896" stroke="rgba(0,0,100,0.4)" stroke-width="1"/><line x1="21" y1="200" x2="164" y2="200" stroke="rgba(0,0,100,0.4)" stroke-width="1"/><line x1="986" y1="973" x2="31" y2="18" stroke="rgba(0,0,100,0.4)" stroke-width="1"/><line x1="919" y1="830" x2="111" y2="22" stroke="rgba(0,0,100,0.4)" stroke-width="1"/><line x1="32" y1="574" x2="456" y2="150" stroke="rgba(0,0,100,0.4)" stroke-width="1"/><line x1="743" y1="595" x2="842" y2="595" stroke="rgba(0,0,100,0.4)" stroke-width="1"/><line x1="623" y1="306" x2="722" y2="306" stroke="rgba(0,0,100,0.4)" stroke-width="1"/><line x1="878" y1="367" x2="519" y2="367" stroke="rgba(0,0,100,0.4)" stroke-width="1"/><line x1="924" y1="221" x2="924" y2="231" stroke="rgba(0,0,100,0.4)" stroke-width="1"/><line x1="86" y1="950" x2="773" y2="263" stroke="rgba(0,0,100,0.4)" stroke-width="1"/><line x1="950" y1="248" x2="537" y2="248" stroke="rgba(0,0,100,0.4)" stroke-width="1"/><line x1="149" y1="155" x2="962" y2="968" stroke="rgba(0,0,100,0.4)" stroke-width="1"/><line x1="449" y1="568" x2="179" y2="568" stroke="rgba(0,0,100,0.4)" stroke-width="1"/><line x1="186" y1="304" x2="868" y2="986" stroke="rgba(0,0,100,0.4)" stroke-width="1"/><line x1="921" y1="320" x2="639" y2="602" stroke="rgba(0,0,100,0.4)" stroke-width="1"/><line x1="602" y1="262" x2="602" y2="500" stroke="rgba(0,0,100,0.4)" stroke-width="1"/><line x1="602" y1="33" x2="602" y2="248" stroke="rgba(0,0,100,0.4)" stroke-width="1"/><line x1="380" y1="731" x2="423" y2="774" stroke="rgba(0,0,100,0.4)" stroke-width="1"/><line x1="535" y1="110" x2="638" y2="110" stroke="rgba(0,0,100,0.4)" stroke-width="1"/><line x1="552" y1="317" x2="552" y2="75" stroke="rgba(0,0,100,0.4)" stroke-width="1"/><line x1="173" y1="667" x2="173" y2="847" stroke="rgba(0,0,100,0.4)" stroke-width="1"/><line x1="707" y1="480" x2="195" y2="480" stroke="rgba(0,0,100,0.4)" stroke-width="1"/><line x1="833" y1="398" x2="267" y2="964" stroke="rgba(0,0,100,0.4)" stroke-width="1"/><line x1="276" y1="716" x2="413" y2="716" stroke="rgba(0,0,100,0.4)" stroke-width="1"/><line x1="342" y1="816" x2="922" y2="816" stroke="rgba(0,0,100,0.4)" stroke-width="1"/><line x1="24" y1="184" x2="715" y2="875" stroke="rgba(0,0,100,0.4)" stroke-width="1"/><line x1="762" y1="330" x2="717" y2="285" stroke="rgba(0,0,100,0.4)" stroke-width="1"/><line x1="718" y1="886" x2="718" y2="551" stroke="rgba(0,0,100,0.4)" stroke-width="1"/><line x1="707" y1="834" x2="707" y2="704" stroke="rgba(0,0,100,0.4)" stroke-width="1"/><line x1="479" y1="578" x2="161" y2="896" stroke="rgba(0,0,100,0.4)" stroke-width="1"/><line x1="145" y1="297" x2="145" y2="435" stroke="rgba(0,0,100,0.4)" stroke-width="1"/><line x1="760" y1="651" x2="536" y2="875" stroke="rgba(0,0,100,0.4)" stroke-width="1"/><line x1="954" y1="629" x2="954" y2="816" stroke="rgba(0,0,100,0.4)" stroke-width="1"/><line x1="305" y1="949" x2="305" y2="919" stroke="rgba(0,0,100,0.4)" stroke-width="1"/><line x1="55" y1="132" x2="55" y2="233" stroke="rgba(0,0,100,0.4)" stroke-width="1"/><line x1="469" y1="85" x2="439" y2="85" stroke="rgba(0,0,100,0.4)" stroke-width="1"/><line x1="653" y1="990" x2="536" y2="990" stroke="rgba(0,0,100,0.4)" stroke-width="1"/><line x1="876" y1="531" x2="432" y2="87" stroke="rgba(0,0,100,0.4)" stroke-width="1"/><line x1="698" y1="207" x2="698" y2="672" stroke="rgba(0,0,100,0.4)" stroke-width="1"/><line x1="11" y1="70" x2="766" y2="825" stroke="rgba(0,0,100,0.4)" stroke-width="1"/><line x1="591" y1="357" x2="30" y2="918" stroke="rgba(0,0,100,0.4)" stroke-width="1"/><line x1="697" y1="987" x2="697" y2="823" stroke="rgba(0,0,100,0.4)" stroke-width="1"/><line x1="610" y1="903" x2="370" y2="663" stroke="rgba(0,0,100,0.4)" stroke-width="1"/><line x1="319" y1="678" x2="319" y2="504" stroke="rgba(0,0,100,0.4)" stroke-width="1"/><line x1="337" y1="150" x2="309" y2="150" stroke="rgba(0,0,100,0.4)" stroke-width="1"/><line x1="876" y1="57" x2="311" y2="57" stroke="rgba(0,0,100,0.4)" stroke-width="1"/><line x1="673" y1="268" x2="345" y2="596" stroke="rgba(0,0,100,0.4)" stroke-width="1"/><line x1="895" y1="364" x2="518" y2="741" stroke="rgba(0,0,100,0.4)" stroke-width="1"/><line x1="327" y1="662" x2="941" y2="48" stroke="rgba(0,0,100,0.4)" stroke-width="1"/><line x1="77" y1="709" x2="110" y2="742" stroke="rgba(0,0,100,0.4)" stroke-width="1"/><line x1="194" y1="78" x2="661" y2="78" stroke="rgba(0,0,100,0.4)" stroke-width="1"/><line x1="587" y1="24" x2="825" y2="24" stroke="rgba(0,0,100,0.4)" stroke-width="1"/><line x1="503" y1="317" x2="719" y2="317" stroke="rgba(0,0,100,0.4)" stroke-width="1"/><line x1="459" y1="632" x2="704" y2="387" stroke="rgba(0,0,100,0.4)" stroke-width="1"/><line x1="717" y1="292" x2="835" y2="292" stroke="rgba(0,0,100,0.4)" stroke-width="1"/><line x1="912" y1="927" x2="72" y2="87" stroke="rgba(0,0,100,0.4)" stroke-width="1"/><line x1="510" y1="527" x2="146" y2="527" stroke="rgba(0,0,100,0.4)" stroke-width="1"/><line x1="336" y1="771" x2="336" y2="266" stroke="rgba(0,0,100,0.4)" stroke-width="1"/><line x1="566" y1="961" x2="496" y2="961" stroke="rgba(0,0,100,0.4)" stroke-width="1"/><line x1="969" y1="335" x2="122" y2="335" stroke="rgba(0,0,100,0.4)" stroke-width="1"/><line x1="925" y1="443" x2="925" y2="397" stroke="rgba(0,0,100,0.4)" stroke-width="1"/><line x1="316" y1="812" x2="606" y2="812" stroke="rgba(0,0,100,0.4)" stroke-width="1"/><line x1="815" y1="795" x2="116" y2="795" stroke="rgba(0,0,100,0.4)" stroke-width="1"/><line x1="169" y1="36" x2="354" y2="36" stroke="rgba(0,0,100,0.4)" stroke-width="1"/><line x1="358" y1="274" x2="389" y2="274" stroke="rgba(0,0,100,0.4)" stroke-width="1"/><line x1="302" y1="147" x2="839" y2="684" stroke="rgba(0,0,100,0.4)" stroke-width="1"/><line x1="762" y1="372" x2="972" y2="372" stroke="rgba(0,0,100,0.4)" stroke-width="1"/><line x1="172" y1="721" x2="682" y2="211" stroke="rgba(0,0,100,0.4)" stroke-width="1"/><line x1="265" y1="150" x2="248" y2="167" stroke="rgba(0,0,100,0.4)" stroke-width="1"/><line x1="753" y1="559" x2="307" y2="559" stroke="rgba(0,0,100,0.4)" stroke-width="1"/><line x1="823" y1="121" x2="823" y2="126" stroke="rgba(0,0,100,0.4)" stroke-width="1"/><line x1="498" y1="856" x2="498" y2="135" stroke="rgba(0,0,100,0.4)" stroke-width="1"/><line x1="75" y1="977" x2="75" y2="381" stroke="rgba(0,0,100,0.4)" stroke-width="1"/><line x1="541" y1="297" x2="541" y2="320" stroke="rgba(0,0,100,0.4)" stroke-width="1"/><line x1="735" y1="108" x2="866" y2="108" stroke="rgba(0,0,100,0.4)" stroke-width="1"/><line x1="434" y1="907" x2="868" y2="907" stroke="rgba(0,0,100,0.4)" stroke-width="1"/><line x1="915" y1="959" x2="255" y2="959" stroke="rgba(0,0,100,0.4)" stroke-width="1"/><line x1="967" y1="666" x2="967" y2="209" stroke="rgba(0,0,100,0.4)" stroke-width="1"/><line x1="361" y1="600" x2="361" y2="222" stroke="rgba(0,0,100,0.4)" stroke-width="1"/><line x1="314" y1="580" x2="314" y2="497" stroke="rgba(0,0,100,0.4)" stroke-width="1"/><line x1="175" y1="989" x2="523" y2="641" stroke="rgba(0,0,100,0.4)" stroke-width="1"/><line x1="957" y1="97" x2="311" y2="743" stroke="rgba(0,0,100,0.4)" stroke-width="1"/><line x1="956" y1="227" x2="12" y2="227" stroke="rgba(0,0,100,0.4)" stroke-width="1"/><line x1="95" y1="364" x2="95" y2="742" stroke="rgba(0,0,100,0.4)" stroke-width="1"/><line x1="857" y1="141" x2="193" y2="805" stroke="rgba(0,0,100,0.4)" stroke-width="1"/><line x1="388" y1="651" x2="468" y2="731" stroke="rgba(0,0,100,0.4)" stroke-width="1"/><line x1="582" y1="177" x2="324" y2="177" stroke="rgba(0,0,100,0.4)" stroke-width="1"/><line x1="68" y1="272" x2="68" y2="720" stroke="rgba(0,0,100,0.4)" stroke-width="1"/><line x1="543" y1="490" x2="910" y2="490" stroke="rgba(0,0,100,0.4)" stroke-width="1"/><line x1="508" y1="281" x2="902" y2="281" stroke="rgba(0,0,100,0.4)" stroke-width="1"/><line x1="823" y1="380" x2="823" y2="296" stroke="rgba(0,0,100,0.4)" stroke-width="1"/><line x1="23" y1="10" x2="946" y2="933" stroke="rgba(0,0,100,0.4)" stroke-width="1"/><line x1="813" y1="70" x2="813" y2="450" stroke="rgba(0,0,100,0.4)" stroke-width="1"/><line x1="881" y1="893" x2="598" y2="893" stroke="rgba(0,0,100,0.4)" stroke-width="1"/><line x1="535" y1="781" x2="973" y2="781" stroke="rgba(0,0,100,0.4)" stroke-width="1"/><line x1="80" y1="890" x2="909" y2="61" stroke="rgba(0,0,100,0.4)" stroke-width="1"/><line x1="604" y1="630" x2="307" y2="927" stroke="rgba(0,0,100,0.4)" stroke-width="1"/><line x1="836" y1="917" x2="184" y2="917" stroke="rgba(0,0,100,0.4)" stroke-width="1"/><line x1="76" y1="727" x2="10" y2="727" stroke="rgba(0,0,100,0.4)" stroke-width="1"/><line x1="727" y1="235" x2="727" y2="578" stroke="rgba(0,0,100,0.4)" stroke-width="1"/><line x1="629" y1="80" x2="892" y2="80" stroke="rgba(0,0,100,0.4)" stroke-width="1"/><line x1="110" y1="655" x2="663" y2="102" stroke="rgba(0,0,100,0.4)" stroke-width="1"/><line x1="985" y1="12" x2="11" y2="986" stroke="rgba(0,0,100,0.4)" stroke-width="1"/><line x1="830" y1="656" x2="830" y2="761" stroke="rgba(0,0,100,0.4)" stroke-width="1"/><line x1="660" y1="869" x2="660" y2="543" stroke="rgba(0,0,100,0.4)" stroke-width="1"/><line x1="381" y1="340" x2="381" y2="562" stroke="rgba(0,0,100,0.4)" stroke-width="1"/><line x1="392" y1="735" x2="417" y2="735" stroke="rgba(0,0,100,0.4)" stroke-width="1"/><line x1="855" y1="24" x2="320" y2="24" stroke="rgba(0,0,100,0.4)" stroke-width="1"/><line x1="801" y1="669" x2="278" y2="146" stroke="rgba(0,0,100,0.4)" stroke-width="1"/><line x1="730" y1="964" x2="107" y2="964" stroke="rgba(0,0,100,0.4)" stroke-width="1"/><line x1="523" y1="158" x2="385" y2="20" stroke="rgba(0,0,100,0.4)" stroke-width="1"/><line x1="27" y1="833" x2="27" y2="987" stroke="rgba(0,0,100,0.4)" stroke-width="1"/><line x1="569" y1="707" x2="500" y2="707" stroke="rgba(0,0,100,0.4)" stroke-width="1"/><line x1="527" y1="732" x2="527" y2="424" stroke="rgba(0,0,100,0.4)" stroke-width="1"/><line x1="74" y1="88" x2="273" y2="287" stroke="rgba(0,0,100,0.4)" stroke-width="1"/><line x1="143" y1="974" x2="143" y2="735" stroke="rgba(0,0,100,0.4)" stroke-width="1"/><line x1="247" y1="388" x2="813" y2="954" stroke="rgba(0,0,100,0.4)" stroke-width="1"/><line x1="577" y1="14" x2="945" y2="382" stroke="rgba(0,0,100,0.4)" stroke-width="1"/><line x1="49" y1="43" x2="953" y2="947" stroke="rgba(0,0,100,0.4)" stroke-width="1"/><line x1="332" y1="210" x2="332" y2="143" stroke="rgba(0,0,100,0.4)" stroke-width="1"/><line x1="69" y1="280" x2="949" y2="280" stroke="rgba(0,0,100,0.4)" stroke-width="1"/><line x1="25" y1="923" x2="904" y2="44" stroke="rgba(0,0,100,0.4)" stroke-width="1"/><line x1="306" y1="569" x2="306" y2="470" stroke="rgba(0,0,100,0.4)" stroke-width="1"/><line x1="158" y1="273" x2="113" y2="228" stroke="rgba(0,0,100,0.4)" stroke-width="1"/><line x1="771" y1="355" x2="694" y2="278" stroke="rgba(0,0,100,0.4)" stroke-width="1"/><line x1="515" y1="115" x2="245" y2="385" stroke="rgba(0,0,100,0.4)" stroke-width="1"/><line x1="427" y1="381" x2="427" y2="729" stroke="rgba(0,0,100,0.4)" stroke-width="1"/><line x1="16" y1="987" x2="987" y2="16" stroke="rgba(0,0,100,0.4)" stroke-width="1"/><line x1="319" y1="463" x2="319" y2="234" stroke="rgba(0,0,100,0.4)" stroke-width="1"/><line x1="854" y1="977" x2="66" y2="189" stroke="rgba(0,0,100,0.4)" stroke-width="1"/><line x1="794" y1="194" x2="794" y2="183" stroke="rgba(0,0,100,0.4)" stroke-width="1"/><line x1="576" y1="65" x2="576" y2="843" stroke="rgba(0,0,100,0.4)" stroke-width="1"/><line x1="37" y1="964" x2="734" y2="964" stroke="rgba(0,0,100,0.4)" stroke-width="1"/><line x1="740" y1="920" x2="740" y2="877" stroke="rgba(0,0,100,0.4)" stroke-width="1"/><line x1="245" y1="487" x2="245" y2="957" stroke="rgba(0,0,100,0.4)" stroke-width="1"/><line x1="404" y1="794" x2="853" y2="794" stroke="rgba(0,0,100,0.4)" stroke-width="1"/><line x1="660" y1="656" x2="660" y2="756" stroke="rgba(0,0,100,0.4)" stroke-width="1"/><line x1="921" y1="605" x2="127" y2="605" stroke="rgba(0,0,100,0.4)" stroke-width="1"/><line x1="650" y1="894" x2="916" y2="894" stroke="rgba(0,0,100,0.4)" stroke-width="1"/><line x1="968" y1="893" x2="481" y2="406" stroke="rgba(0,0,100,0.4)" stroke-width="1"/><line x1="986" y1="979" x2="21" y2="14" stroke="rgba(0,0,100,0.4)" stroke-width="1"/><line x1="154" y1="303" x2="498" y2="647" stroke="rgba(0,0,100,0.4)" stroke-width="1"/><line x1="720" y1="338" x2="229" y2="338" stroke="rgba(0,0,100,0.4)" stroke-width="1"/><line x1="62" y1="936" x2="62" y2="897" stroke="rgba(0,0,100,0.4)" stroke-width="1"/><line x1="55" y1="820" x2="55" y2="923" stroke="rgba(0,0,100,0.4)" stroke-width="1"/><line x1="812" y1="31" x2="551" y2="31" stroke="rgba(0,0,100,0.4)" stroke-width="1"/><line x1="338" y1="466" x2="951" y2="466" stroke="rgba(0,0,100,0.4)" stroke-width="1"/><line x1="663" y1="492" x2="775" y2="604" stroke="rgba(0,0,100,0.4)" stroke-width="1"/><line x1="449" y1="602" x2="39" y2="602" stroke="rgba(0,0,100,0.4)" stroke-width="1"/><line x1="44" y1="403" x2="44" y2="144" stroke="rgba(0,0,100,0.4)" stroke-width="1"/><line x1="58" y1="62" x2="339" y2="62" stroke="rgba(0,0,100,0.4)" stroke-width="1"/><line x1="713" y1="730" x2="713" y2="502" stroke="rgba(0,0,100,0.4)" stroke-width="1"/><line x1="704" y1="525" x2="976" y2="797" stroke="rgba(0,0,100,0.4)" stroke-width="1"/><line x1="372" y1="709" x2="372" y2="680" stroke="rgba(0,0,100,0.4)" stroke-width="1"/><line x1="709" y1="387" x2="153" y2="387" stroke="rgba(0,0,100,0.4)" stroke-width="1"/><line x1="922" y1="103" x2="615" y2="103" stroke="rgba(0,0,100,0.4)" stroke-width="1"/><line x1="629" y1="839" x2="121" y2="839" stroke="rgba(0,0,100,0.4)" stroke-width="1"/><line x1="206" y1="722" x2="529" y2="722" stroke="rgba(0,0,100,0.4)" stroke-width="1"/><line x1="232" y1="556" x2="422" y2="746" stroke="rgba(0,0,100,0.4)" stroke-width="1"/><line x1="300" y1="470" x2="300" y2="726" stroke="rgba(0,0,100,0.4)" stroke-width="1"/><line x1="376" y1="820" x2="622" y2="574" stroke="rgba(0,0,100,0.4)" stroke-width="1"/><line x1="834" y1="25" x2="255" y2="604" stroke="rgba(0,0,100,0.4)" stroke-width="1"/><line x1="271" y1="200" x2="271" y2="875" stroke="rgba(0,0,100,0.4)" stroke-width="1"/><line x1="804" y1="934" x2="872" y2="934" stroke="rgba(0,0,100,0.4)" stroke-width="1"/><line x1="900" y1="753" x2="900" y2="632" stroke="rgba(0,0,100,0.4)" stroke-width="1"/><line x1="604" y1="323" x2="604" y2="70" stroke="rgba(0,0,100,0.4)" stroke-width="1"/><line x1="890" y1="911" x2="890" y2="41" stroke="rgba(0,0,100,0.4)" stroke-width="1"/><line x1="464" y1="169" x2="812" y2="169" stroke="rgba(0,0,100,0.4)" stroke-width="1"/><line x1="850" y1="196" x2="850" y2="903" stroke="rgba(0,0,100,0.4)" stroke-width="1"/><line x1="34" y1="574" x2="34" y2="54" stroke="rgba(0,0,100,0.4)" stroke-width="1"/><line x1="718" y1="59" x2="462" y2="315" stroke="rgba(0,0,100,0.4)" stroke-width="1"/><line x1="431" y1="923" x2="737" y2="923" stroke="rgba(0,0,100,0.4)" stroke-width="1"/><line x1="433" y1="573" x2="433" y2="420" stroke="rgba(0,0,100,0.4)" stroke-width="1"/><line x1="297" y1="478" x2="297" y2="775" stroke="rgba(0,0,100,0.4)" stroke-width="1"/><line x1="756" y1="545" x2="544" y2="545" stroke="rgba(0,0,100,0.4)" stroke-width="1"/><line x1="247" y1="708" x2="247" y2="702" stroke="rgba(0,0,100,0.4)" stroke-width="1"/><line x1="736" y1="835" x2="173" y2="272" stroke="rgba(0,0,100,0.4)" stroke-width="1"/><line x1="319" y1="85" x2="319" y2="827" stroke="rgba(0,0,100,0.4)" stroke-width="1"/><line x1="931" y1="775" x2="683" y2="775" stroke="rgba(0,0,100,0.4)" stroke-width="1"/><line x1="292" y1="315" x2="451" y2="315" stroke="rgba(0,0,100,0.4)" stroke-width="1"/><line x1="397" y1="435" x2="380" y2="435" stroke="rgba(0,0,100,0.4)" stroke-width="1"/><line x1="987" y1="978" x2="82" y2="73" stroke="rgba(0,0,100,0.4)" stroke-width="1"/><line x1="227" y1="349" x2="227" y2="724" stroke="rgba(0,0,100,0.4)" stroke-width="1"/><line x1="349" y1="741" x2="899" y2="191" stroke="rgba(0,0,100,0.4)" stroke-width="1"/><line x1="965" y1="325" x2="765" y2="125" stroke="rgba(0,0,100,0.4)" stroke-width="1"/><line x1="849" y1="306" x2="88" y2="306" stroke="rgba(0,0,100,0.4)" stroke-width="1"/><line x1="516" y1="548" x2="516" y2="902" stroke="rgba(0,0,100,0.4)" stroke-width="1"/><line x1="919" y1="395" x2="568" y2="395" stroke="rgba(0,0,100,0.4)" stroke-width="1"/><line x1="736" y1="507" x2="192" y2="507" stroke="rgba(0,0,100,0.4)" stroke-width="1"/><line x1="960" y1="782" x2="196" y2="18" stroke="rgba(0,0,100,0.4)" stroke-width="1"/><line x1="431" y1="413" x2="510" y2="492" stroke="rgba(0,0,100,0.4)" stroke-width="1"/><line x1="911" y1="696" x2="911" y2="830" stroke="rgba(0,0,100,0.4)" stroke-width="1"/><line x1="888" y1="225" x2="174" y2="225" stroke="rgba(0,0,100,0.4)" stroke-width="1"/><line x1="57" y1="790" x2="57" y2="953" stroke="rgba(0,0,100,0.4)" stroke-width="1"/><line x1="858" y1="399" x2="119" y2="399" stroke="rgba(0,0,100,0.4)" stroke-width="1"/><line x1="59" y1="302" x2="290" y2="302" stroke="rgba(0,0,100,0.4)" stroke-width="1"/><line x1="456" y1="907" x2="456" y2="599" stroke="rgba(0,0,100,0.4)" stroke-width="1"/><line x1="374" y1="743" x2="374" y2="565" stroke="rgba(0,0,100,0.4)" stroke-width="1"/><line x1="183" y1="107" x2="183" y2="171" stroke="rgba(0,0,100,0.4)" stroke-width="1"/><line x1="58" y1="699" x2="288" y2="699" stroke="rgba(0,0,100,0.4)" stroke-width="1"/><line x1="886" y1="970" x2="109" y2="193" stroke="rgba(0,0,100,0.4)" stroke-width="1"/><line x1="940" y1="395" x2="806" y2="261" stroke="rgba(0,0,100,0.4)" stroke-width="1"/><line x1="781" y1="480" x2="596" y2="665" stroke="rgba(0,0,100,0.4)" stroke-width="1"/><line x1="456" y1="724" x2="265" y2="724" stroke="rgba(0,0,100,0.4)" stroke-width="1"/><line x1="414" y1="406" x2="299" y2="521" stroke="rgba(0,0,100,0.4)" stroke-width="1"/><line x1="115" y1="898" x2="115" y2="863" stroke="rgba(0,0,100,0.4)" stroke-width="1"/><line x1="34" y1="543" x2="34" y2="496" stroke="rgba(0,0,100,0.4)" stroke-width="1"/><line x1="900" y1="843" x2="900" y2="457" stroke="rgba(0,0,100,0.4)" stroke-width="1"/><line x1="165" y1="209" x2="189" y2="209" stroke="rgba(0,0,100,0.4)" stroke-width="1"/><line x1="976" y1="627" x2="539" y2="190" stroke="rgba(0,0,100,0.4)" stroke-width="1"/><line x1="252" y1="202" x2="137" y2="202" stroke="rgba(0,0,100,0.4)" stroke-width="1"/><line x1="584" y1="339" x2="550" y2="373" stroke="rgba(0,0,100,0.4)" stroke-width="1"/><line x1="580" y1="153" x2="380" y2="353" stroke="rgba(0,0,100,0.4)" stroke-width="1"/><line x1="232" y1="412" x2="650" y2="830" stroke="rgba(0,0,100,0.4)" stroke-width="1"/><line x1="910" y1="833" x2="88" y2="11" stroke="rgba(0,0,100,0.4)" stroke-width="1"/><line x1="418" y1="245" x2="829" y2="245" stroke="rgba(0,0,100,0.4)" stroke-width="1"/><line x1="298" y1="823" x2="907" y2="214" stroke="rgba(0,0,100,0.4)" stroke-width="1"/><line x1="91" y1="876" x2="495" y2="876" stroke="rgba(0,0,100,0.4)" stroke-width="1"/><line x1="315" y1="874" x2="650" y2="539" stroke="rgba(0,0,100,0.4)" stroke-width="1"/><line x1="907" y1="635" x2="365" y2="635" stroke="rgba(0,0,100,0.4)" stroke-width="1"/><line x1="339" y1="313" x2="320" y2="313" stroke="rgba(0,0,100,0.4)" stroke-width="1"/><line x1="362" y1="435" x2="362" y2="938" stroke="rgba(0,0,100,0.4)" stroke-width="1"/><line x1="152" y1="664" x2="152" y2="391" stroke="rgba(0,0,100,0.4)" stroke-width="1"/><line x1="253" y1="210" x2="272" y2="210" stroke="rgba(0,0,100,0.4)" stroke-width="1"/><line x1="216" y1="396" x2="216" y2="726" stroke="rgba(0,0,100,0.4)" stroke-width="1"/><line x1="852" y1="912" x2="15" y2="75" stroke="rgba(0,0,100,0.4)" stroke-width="1"/><line x1="882" y1="828" x2="689" y2="828" stroke="rgba(0,0,100,0.4)" stroke-width="1"/><line x1="674" y1="533" x2="674" y2="523" stroke="rgba(0,0,100,0.4)" stroke-width="1"/><line x1="469" y1="719" x2="469" y2="79" stroke="rgba(0,0,100,0.4)" stroke-width="1"/><line x1="733" y1="169" x2="665" y2="101" stroke="rgba(0,0,100,0.4)" stroke-width="1"/><line x1="734" y1="632" x2="717" y2="632" stroke="rgba(0,0,100,0.4)" stroke-width="1"/><line x1="615" y1="565" x2="615" y2="114" stroke="rgba(0,0,100,0.4)" stroke-width="1"/><line x1="979" y1="720" x2="243" y2="720" stroke="rgba(0,0,100,0.4)" stroke-width="1"/><line x1="827" y1="125" x2="827" y2="919" stroke="rgba(0,0,100,0.4)" stroke-width="1"/><line x1="605" y1="419" x2="601" y2="419" stroke="rgba(0,0,100,0.4)" stroke-width="1"/><line x1="749" y1="13" x2="433" y2="329" stroke="rgba(0,0,100,0.4)" stroke-width="1"/><line x1="990" y1="902" x2="990" y2="843" stroke="rgba(0,0,100,0.4)" stroke-width="1"/><line x1="186" y1="679" x2="186" y2="457" stroke="rgba(0,0,100,0.4)" stroke-width="1"/><line x1="374" y1="796" x2="736" y2="796" stroke="rgba(0,0,100,0.4)" stroke-width="1"/><line x1="133" y1="867" x2="133" y2="801" stroke="rgba(0,0,100,0.4)" stroke-width="1"/><line x1="757" y1="622" x2="812" y2="567" stroke="rgba(0,0,100,0.4)" stroke-width="1"/><line x1="351" y1="179" x2="351" y2="509" stroke="rgba(0,0,100,0.4)" stroke-width="1"/><line x1="214" y1="748" x2="575" y2="748" stroke="rgba(0,0,100,0.4)" stroke-width="1"/><line x1="177" y1="903" x2="861" y2="219" stroke="rgba(0,0,100,0.4)" stroke-width="1"/><line x1="747" y1="981" x2="747" y2="64" stroke="rgba(0,0,100,0.4)" stroke-width="1"/><line x1="588" y1="125" x2="588" y2="557" stroke="rgba(0,0,100,0.4)" stroke-width="1"/><line x1="464" y1="338" x2="769" y2="338" stroke="rgba(0,0,100,0.4)" stroke-width="1"/><line x1="645" y1="669" x2="125" y2="149" stroke="rgba(0,0,100,0.4)" stroke-width="1"/><line x1="579" y1="352" x2="138" y2="352" stroke="rgba(0,0,100,0.4)" stroke-width="1"/><line x1="77" y1="605" x2="520" y2="605" stroke="rgba(0,0,100,0.4)" stroke-width="1"/><line x1="698" y1="816" x2="698" y2="917" stroke="rgba(0,0,100,0.4)" stroke-width="1"/><line x1="112" y1="943" x2="112" y2="834" stroke="rgba(0,0,100,0.4)" stroke-width="1"/><line x1="731" y1="720" x2="724" y2="720" stroke="rgba(0,0,100,0.4)" stroke-width="1"/><line x1="887" y1="440" x2="976" y2="351" stroke="rgba(0,0,100,0.4)" stroke-width="1"/><line x1="676" y1="301" x2="676" y2="741" stroke="rgba(0,0,100,0.4)" stroke-width="1"/><line x1="870" y1="732" x2="870" y2="648" stroke="rgba(0,0,100,0.4)" stroke-width="1"/><line x1="250" y1="826" x2="413" y2="826" stroke="rgba(0,0,100,0.4)" stroke-width="1"/><line x1="399" y1="720" x2="543" y2="864" stroke="rgba(0,0,100,0.4)" stroke-width="1"/><line x1="834" y1="93" x2="468" y2="459" stroke="rgba(0,0,100,0.4)" stroke-width="1"/><line x1="415" y1="475" x2="415" y2="641" stroke="rgba(0,0,100,0.4)" stroke-width="1"/><line x1="793" y1="415" x2="47" y2="415" stroke="rgba(0,0,100,0.4)" stroke-width="1"/><line x1="365" y1="476" x2="365" y2="31" stroke="rgba(0,0,100,0.4)" stroke-width="1"/><line x1="195" y1="154" x2="813" y2="154" stroke="rgba(0,0,100,0.4)" stroke-width="1"/><line x1="503" y1="605" x2="773" y2="605" stroke="rgba(0,0,100,0.4)" stroke-width="1"/><line x1="553" y1="121" x2="851" y2="121" stroke="rgba(0,0,100,0.4)" stroke-width="1"/><line x1="25" y1="420" x2="423" y2="818" stroke="rgba(0,0,100,0.4)" stroke-width="1"/><line x1="943" y1="110" x2="258" y2="110" stroke="rgba(0,0,100,0.4)" stroke-width="1"/><line x1="775" y1="436" x2="826" y2="436" stroke="rgba(0,0,100,0.4)" stroke-width="1"/><line x1="16" y1="161" x2="16" y2="889" stroke="rgba(0,0,100,0.4)" stroke-width="1"/><line x1="702" y1="555" x2="920" y2="555" stroke="rgba(0,0,100,0.4)" stroke-width="1"/><line x1="589" y1="858" x2="533" y2="802" stroke="rgba(0,0,100,0.4)" stroke-width="1"/><line x1="932" y1="404" x2="932" y2="539" stroke="rgba(0,0,100,0.4)" stroke-width="1"/><line x1="647" y1="275" x2="647" y2="962" stroke="rgba(0,0,100,0.4)" stroke-width="1"/><line x1="87" y1="179" x2="326" y2="179" stroke="rgba(0,0,100,0.4)" stroke-width="1"/><line x1="931" y1="588" x2="931" y2="287" stroke="rgba(0,0,100,0.4)" stroke-width="1"/><line x1="868" y1="96" x2="557" y2="96" stroke="rgba(0,0,100,0.4)" stroke-width="1"/><line x1="879" y1="28" x2="875" y2="28" stroke="rgba(0,0,100,0.4)" stroke-width="1"/><line x1="375" y1="132" x2="287" y2="44" stroke="rgba(0,0,100,0.4)" stroke-width="1"/><line x1="484" y1="352" x2="644" y2="512" stroke="rgba(0,0,100,0.4)" stroke-width="1"/><line x1="448" y1="566" x2="448" y2="214" stroke="rgba(0,0,100,0.4)" stroke-width="1"/><line x1="734" y1="460" x2="717" y2="460" stroke="rgba(0,0,100,0.4)" stroke-width="1"/><line x1="550" y1="379" x2="550" y2="674" stroke="rgba(0,0,100,0.4)" stroke-width="1"/><line x1="964" y1="184" x2="820" y2="328" stroke="rgba(0,0,100,0.4)" stroke-width="1"/><line x1="167" y1="504" x2="387" y2="504" stroke="rgba(0,0,100,0.4)" stroke-width="1"/><line x1="594" y1="777" x2="952" y2="777" stroke="rgba(0,0,100,0.4)" stroke-width="1"/><line x1="328" y1="712" x2="837" y2="712" stroke="rgba(0,0,100,0.4)" stroke-width="1"/><line x1="600" y1="773" x2="546" y2="773" stroke="rgba(0,0,100,0.4)" stroke-width="1"/><line x1="955" y1="954" x2="82" y2="81" stroke="rgba(0,0,100,0.4)" stroke-width="1"/><line x1="863" y1="790" x2="863" y2="86" stroke="rgba(0,0,100,0.4)" stroke-width="1"/><line x1="831" y1="773" x2="32" y2="773" stroke="rgba(0,0,100,0.4)" stroke-width="1"/><line x1="987" y1="11" x2="19" y2="979" stroke="rgba(0,0,100,0.4)" stroke-width="1"/><line x1="901" y1="878" x2="901" y2="177" stroke="rgba(0,0,100,0.4)" stroke-width="1"/><line x1="427" y1="341" x2="721" y2="635" stroke="rgba(0,0,100,0.4)" stroke-width="1"/><line x1="690" y1="835" x2="567" y2="835" stroke="rgba(0,0,100,0.4)" stroke-width="1"/><line x1="557" y1="724" x2="14" y2="181" stroke="rgba(0,0,100,0.4)" stroke-width="1"/><line x1="591" y1="20" x2="205" y2="406" stroke="rgba(0,0,100,0.4)" stroke-width="1"/><line x1="846" y1="865" x2="846" y2="859" stroke="rgba(0,0,100,0.4)" stroke-width="1"/><line x1="644" y1="646" x2="742" y2="548" stroke="rgba(0,0,100,0.4)" stroke-width="1"/><line x1="187" y1="376" x2="187" y2="563" stroke="rgba(0,0,100,0.4)" stroke-width="1"/><line x1="367" y1="806" x2="250" y2="923" stroke="rgba(0,0,100,0.4)" stroke-width="1"/><line x1="332" y1="731" x2="468" y2="731" stroke="rgba(0,0,100,0.4)" stroke-width="1"/><line x1="378" y1="431" x2="469" y2="431" stroke="rgba(0,0,100,0.4)" stroke-width="1"/><line x1="844" y1="949" x2="844" y2="452" stroke="rgba(0,0,100,0.4)" stroke-width="1"/><line x1="172" y1="320" x2="735" y2="320" stroke="rgba(0,0,100,0.4)" stroke-width="1"/><line x1="597" y1="639" x2="633" y2="639" stroke="rgba(0,0,100,0.4)" stroke-width="1"/><line x1="353" y1="831" x2="353" y2="307" stroke="rgba(0,0,100,0.4)" stroke-width="1"/><line x1="355" y1="392" x2="465" y2="392" stroke="rgba(0,0,100,0.4)" stroke-width="1"/><line x1="624" y1="179" x2="548" y2="255" stroke="rgba(0,0,100,0.4)" stroke-width="1"/><line x1="441" y1="928" x2="401" y2="888" stroke="rgba(0,0,100,0.4)" stroke-width="1"/><line x1="442" y1="680" x2="442" y2="569" stroke="rgba(0,0,100,0.4)" stroke-width="1"/><line x1="567" y1="385" x2="908" y2="44" stroke="rgba(0,0,100,0.4)" stroke-width="1"/><line x1="10" y1="561" x2="603" y2="561" stroke="rgba(0,0,100,0.4)" stroke-width="1"/><line x1="851" y1="289" x2="13" y2="289" stroke="rgba(0,0,100,0.4)" stroke-width="1"/><line x1="832" y1="143" x2="832" y2="64" stroke="rgba(0,0,100,0.4)" stroke-width="1"/><line x1="366" y1="851" x2="67" y2="851" stroke="rgba(0,0,100,0.4)" stroke-width="1"/><line x1="890" y1="404" x2="333" y2="961" stroke="rgba(0,0,100,0.4)" stroke-width="1"/><line x1="83" y1="22" x2="963" y2="902" stroke="rgba(0,0,100,0.4)" stroke-width="1"/><line x1="10" y1="783" x2="821" y2="783" stroke="rgba(0,0,100,0.4)" stroke-width="1"/><line x1="369" y1="481" x2="369" y2="611" stroke="rgba(0,0,100,0.4)" stroke-width="1"/><line x1="943" y1="356" x2="846" y2="356" stroke="rgba(0,0,100,0.4)" stroke-width="1"/><line x1="675" y1="95" x2="335" y2="435" stroke="rgba(0,0,100,0.4)" stroke-width="1"/><line x1="442" y1="928" x2="442" y2="764" stroke="rgba(0,0,100,0.4)" stroke-width="1"/><line x1="500" y1="643" x2="334" y2="643" stroke="rgba(0,0,100,0.4)" stroke-width="1"/><line x1="90" y1="207" x2="620" y2="207" stroke="rgba(0,0,100,0.4)" stroke-width="1"/><line x1="520" y1="412" x2="745" y2="187" stroke="rgba(0,0,100,0.4)" stroke-width="1"/><line x1="586" y1="89" x2="613" y2="89" stroke="rgba(0,0,100,0.4)" stroke-width="1"/><line x1="411" y1="424" x2="595" y2="424" stroke="rgba(0,0,100,0.4)" stroke-width="1"/><line x1="938" y1="650" x2="232" y2="650" stroke="rgba(0,0,100,0.4)" stroke-width="1"/><line x1="216" y1="773" x2="76" y2="773" stroke="rgba(0,0,100,0.4)" stroke-width="1"/><line x1="895" y1="690" x2="895" y2="294" stroke="rgba(0,0,100,0.4)" stroke-width="1"/><line x1="250" y1="886" x2="250" y2="605" stroke="rgba(0,0,100,0.4)" stroke-width="1"/><line x1="296" y1="422" x2="863" y2="989" stroke="rgba(0,0,100,0.4)" stroke-width="1"/><line x1="534" y1="626" x2="534" y2="707" stroke="rgba(0,0,100,0.4)" stroke-width="1"/><line x1="577" y1="608" x2="52" y2="83" stroke="rgba(0,0,100,0.4)" stroke-width="1"/><line x1="61" y1="674" x2="714" y2="21" stroke="rgba(0,0,100,0.4)" stroke-width="1"/><line x1="844" y1="126" x2="844" y2="694" stroke="rgba(0,0,100,0.4)" stroke-width="1"/><line x1="565" y1="541" x2="253" y2="229" stroke="rgba(0,0,100,0.4)" stroke-width="1"/><line x1="62" y1="24" x2="986" y2="948" stroke="rgba(0,0,100,0.4)" stroke-width="1"/><line x1="588" y1="901" x2="588" y2="212" stroke="rgba(0,0,100,0.4)" stroke-width="1"/><line x1="541" y1="508" x2="541" y2="141" stroke="rgba(0,0,100,0.4)" stroke-width="1"/><line x1="516" y1="376" x2="589" y2="449" stroke="rgba(0,0,100,0.4)" stroke-width="1"/><line x1="390" y1="215" x2="749" y2="215" stroke="rgba(0,0,100,0.4)" stroke-width="1"/><line x1="324" y1="878" x2="296" y2="850" stroke="rgba(0,0,100,0.4)" stroke-width="1"/><line x1="592" y1="408" x2="592" y2="158" stroke="rgba(0,0,100,0.4)" stroke-width="1"/><line x1="433" y1="207" x2="172" y2="207" stroke="rgba(0,0,100,0.4)" stroke-width="1"/><line x1="139" y1="72" x2="139" y2="121" stroke="rgba(0,0,100,0.4)" stroke-width="1"/><line x1="471" y1="676" x2="268" y2="676" stroke="rgba(0,0,100,0.4)" stroke-width="1"/><line x1="374" y1="433" x2="374" y2="95" stroke="rgba(0,0,100,0.4)" stroke-width="1"/><line x1="672" y1="459" x2="640" y2="427" stroke="rgba(0,0,100,0.4)" stroke-width="1"/><line x1="348" y1="577" x2="843" y2="82" stroke="rgba(0,0,100,0.4)" stroke-width="1"/><line x1="903" y1="466" x2="903" y2="348" stroke="rgba(0,0,100,0.4)" stroke-width="1"/><line x1="437" y1="759" x2="726" y2="470" stroke="rgba(0,0,100,0.4)" stroke-width="1"/><line x1="152" y1="101" x2="325" y2="274" stroke="rgba(0,0,100,0.4)" stroke-width="1"/><line x1="933" y1="897" x2="335" y2="897" stroke="rgba(0,0,100,0.4)" stroke-width="1"/><line x1="516" y1="877" x2="505" y2="866" stroke="rgba(0,0,100,0.4)" stroke-width="1"/><line x1="890" y1="715" x2="570" y2="715" stroke="rgba(0,0,100,0.4)" stroke-width="1"/><line x1="78" y1="124" x2="871" y2="917" stroke="rgba(0,0,100,0.4)" stroke-width="1"/><line x1="360" y1="645" x2="967" y2="645" stroke="rgba(0,0,100,0.4)" stroke-width="1"/><line x1="645" y1="271" x2="645" y2="57" stroke="rgba(0,0,100,0.4)" stroke-width="1"/><line x1="693" y1="878" x2="693" y2="159" stroke="rgba(0,0,100,0.4)" stroke-width="1"/><line x1="49" y1="77" x2="49" y2="744" stroke="rgba(0,0,100,0.4)" stroke-width="1"/><line x1="935" y1="914" x2="97" y2="76" stroke="rgba(0,0,100,0.4)" stroke-width="1"/><line x1="941" y1="726" x2="941" y2="464" stroke="rgba(0,0,100,0.4)" stroke-width="1"/><line x1="756" y1="985" x2="756" y2="480" stroke="rgba(0,0,100,0.4)" stroke-width="1"/><line x1="887" y1="378" x2="887" y2="529" stroke="rgba(0,0,100,0.4)" stroke-width="1"/><line x1="405" y1="925" x2="405" y2="533" stroke="rgba(0,0,100,0.4)" stroke-width="1"/><line x1="533" y1="156" x2="201" y2="156" stroke="rgba(0,0,100,0.4)" stroke-width="1"/><line x1="565" y1="535" x2="120" y2="90" stroke="rgba(0,0,100,0.4)" stroke-width="1"/><line x1="51" y1="15" x2="967" y2="931" stroke="rgba(0,0,100,0.4)" stroke-width="1"/><line x1="660" y1="218" x2="660" y2="339" stroke="rgba(0,0,100,0.4)" stroke-width="1"/><line x1="522" y1="682" x2="571" y2="682" stroke="rgba(0,0,100,0.4)" stroke-width="1"/><line x1="958" y1="899" x2="729" y2="899" stroke="rgba(0,0,100,0.4)" stroke-width="1"/><line x1="521" y1="687" x2="288" y2="687" stroke="rgba(0,0,100,0.4)" stroke-width="1"/><line x1="643" y1="148" x2="468" y2="323" stroke="rgba(0,0,100,0.4)" stroke-width="1"/><line x1="989" y1="971" x2="68" y2="50" stroke="rgba(0,0,100,0.4)" stroke-width="1"/><line x1="729" y1="273" x2="311" y2="691" stroke="rgba(0,0,100,0.4)" stroke-width="1"/><line x1="245" y1="205" x2="305" y2="205" stroke="rgba(0,0,100,0.4)" stroke-width="1"/><line x1="634" y1="747" x2="634" y2="605" stroke="rgba(0,0,100,0.4)" stroke-width="1"/><line x1="280" y1="407" x2="488" y2="199" stroke="rgba(0,0,100,0.4)" stroke-width="1"/><line x1="109" y1="931" x2="706" y2="334" stroke="rgba(0,0,100,0.4)" stroke-width="1"/><line x1="849" y1="694" x2="615" y2="928" stroke="rgba(0,0,100,0.4)" stroke-width="1"/><line x1="794" y1="84" x2="218" y2="84" stroke="rgba(0,0,100,0.4)" stroke-width="1"/><line x1="669" y1="184" x2="865" y2="184" stroke="rgba(0,0,100,0.4)" stroke-width="1"/><line x1="936" y1="834" x2="234" y2="132" stroke="rgba(0,0,100,0.4)" stroke-width="1"/><line x1="691" y1="445" x2="914" y2="668" stroke="rgba(0,0,100,0.4)" stroke-width="1"/><line x1="423" y1="161" x2="515" y2="69" stroke="rgba(0,0,100,0.4)" stroke-width="1"/><line x1="81" y1="674" x2="37" y2="674" stroke="rgba(0,0,100,0.4)" stroke-width="1"/><line x1="292" y1="423" x2="292" y2="741" stroke="rgba(0,0,100,0.4)" stroke-width="1"/><line x1="188" y1="306" x2="844" y2="962" stroke="rgba(0,0,100,0.4)" stroke-width="1"/><line x1="204" y1="309" x2="204" y2="705" stroke="rgba(0,0,100,0.4)" stroke-width="1"/><line x1="961" y1="652" x2="746" y2="652" stroke="rgba(0,0,100,0.4)" stroke-width="1"/><line x1="985" y1="987" x2="11" y2="13" stroke="rgba(0,0,100,0.4)" stroke-width="1"/><line x1="139" y1="153" x2="936" y2="950" stroke="rgba(0,0,100,0.4)" stroke-width="1"/><line x1="436" y1="978" x2="244" y2="978" stroke="rgba(0,0,100,0.4)" stroke-width="1"/><line x1="921" y1="633" x2="921" y2="340" stroke="rgba(0,0,100,0.4)" stroke-width="1"/><line x1="872" y1="63" x2="233" y2="63" stroke="rgba(0,0,100,0.4)" stroke-width="1"/></svg>